<?xml version="1.0" encoding="UTF-8"?>
<svg width="255px" height="99px" viewBox="0 0 255 99" version="1.1" xmlns="http://www.w3.org/2000/svg" xmlns:xlink="http://www.w3.org/1999/xlink">
    <!-- Generator: Sketch 49.3 (51167) - http://www.bohemiancoding.com/sketch -->
    <title>Group 5</title>
    <desc>Created with Sketch.</desc>
    <defs></defs>
    <g id="version-3" stroke="none" stroke-width="1" fill="none" fill-rule="evenodd">
        <g id="Desktop-HD-Copy-24" transform="translate(-916.000000, -1154.000000)">
            <g id="Group-5" transform="translate(916.000000, 1154.000000)">
                <g id="Group-4-Copy">
                    <rect id="Rectangle-7-Copy" fill="#EEDA88" x="0" y="0" width="255" height="99" rx="8"></rect>
                    <path d="M74.8455237,49.6800335 C77.9419478,51.6262183 80,55.0727672 80,59 C80,65.0751322 75.0751322,70 69,70 C66.4235377,70 64.0539626,69.1142102 62.1791973,67.6305529 C60.9475291,68.2394241 59.6534989,68.7412455 58.3092626,69.1238614 C56.9858901,69.6878794 55.5293949,70 54,70 C53.7251505,70 53.4526554,69.9899197 53.1828641,69.9701087 C52.7910823,69.9899561 52.3967141,70 52,70 C48.586828,70 45.3473031,69.2565286 42.4345369,67.9226974 C40.6252423,69.229742 38.4025729,70 36,70 C29.9248678,70 25,65.0751322 25,59 C25,55.4743361 26.6586888,52.3360797 29.2382866,50.3230108 C29.0812735,49.2380123 29,48.1284974 29,47 C29,34.2974508 39.2974508,24 52,24 C64.7025492,24 75,34.2974508 75,47 C75,47.9065508 74.9475516,48.8008516 74.8455237,49.6800335 Z" id="Combined-Shape-Copy-2" fill="#DFBC2E"></path>
                    <text id="Vanilla" font-family="AvenirNext-Bold, Avenir Next" font-size="22" font-weight="bold" fill="#FFFFFF">
                        <tspan x="121.92" y="57">Vanilla</tspan>
                    </text>
                </g>
            </g>
        </g>
    </g>
</svg>