<?xml version="1.0" encoding="UTF-8"?>
<svg width="116px" height="130px" viewBox="0 0 116 130" version="1.1" xmlns="http://www.w3.org/2000/svg" xmlns:xlink="http://www.w3.org/1999/xlink">
    <!-- Generator: Sketch 49.3 (51167) - http://www.bohemiancoding.com/sketch -->
    <title>cherries</title>
    <desc>Created with Sketch.</desc>
    <defs></defs>
    <g id="version-3" stroke="none" stroke-width="1" fill="none" fill-rule="evenodd">
        <g id="Desktop-HD-Copy-22" transform="translate(-1049.000000, -2221.000000)" fill-rule="nonzero">
            <g id="cherries" transform="translate(1049.000000, 2221.000000)">
                <path d="M0,84.6296296 C0,67.1474815 11.9725385,53 26.7692308,53 L31.2307692,53 C46.0274615,53 58,67.1474815 58,84.6296296 C58,100.851111 45.0169231,114 29,114 C12.9830769,114 0,100.848852 0,84.6296296 Z" id="Shape" fill="#D13834"></path>
                <path d="M24.7310939,106 C24.5677559,106 24.3998808,105.982258 24.2342742,105.946775 C16.1671938,104.181495 9.60645231,98.4177193 7.11101123,90.9019693 C6.72535215,89.7376822 7.37643541,88.4869053 8.56970997,88.1076804 C9.76525311,87.7328908 11.0424652,88.3671501 11.4281243,89.5336548 C13.3995228,95.4726275 18.8168985,100.216266 25.2256449,101.617845 C26.4484111,101.886186 27.2174606,103.070432 26.9452307,104.265767 C26.7047609,105.296992 25.7701048,106 24.7310939,106 Z" id="Shape" fill="#ED3F32"></path>
                <path d="M8.39254731,81 C8.23731819,81 8.0773128,80.986817 7.91730741,80.9560568 C6.62532358,80.7165665 5.78708638,79.5564663 6.04739365,78.3678032 C6.69935592,75.3928495 7.88626159,72.5958657 9.57228855,70.0515552 C10.2600729,69.0166932 11.7311673,68.6915136 12.8559813,69.3199012 C13.9807953,69.9526831 14.3366282,71.303936 13.651232,72.3409952 C12.2565581,74.4458738 11.2726444,76.766074 10.7329247,79.2378782 C10.5036632,80.2793318 9.50542063,81 8.39254731,81 Z" id="Shape" fill="#ED3F32"></path>
                <path d="M58,100.62963 C58,83.1474815 69.9725385,69 84.7692308,69 L89.2307692,69 C104.027462,69 116,83.1474815 116,100.62963 C116,116.851111 103.016923,130 87,130 C70.9830769,130 58,116.848852 58,100.62963 Z" id="Shape" fill="#ED3F32"></path>
                <path d="M46.7142857,76 C39.1508571,76 33,69.8491429 33,62.2857143 C33,61.024 34.024,60 35.2857143,60 C36.5474286,60 37.5714286,61.024 37.5714286,62.2857143 C37.5714286,67.328 41.672,71.4285714 46.7142857,71.4285714 C47.976,71.4285714 49,72.4525714 49,73.7142857 C49,74.976 47.976,76 46.7142857,76 Z" id="Shape" fill="#ED3F32"></path>
                <path d="M100.714286,91 C93.1508571,91 87,84.8491429 87,77.2857143 C87,76.024 88.024,75 89.2857143,75 C90.5474286,75 91.5714286,76.024 91.5714286,77.2857143 C91.5714286,82.328 95.672,86.4285714 100.714286,86.4285714 C101.976,86.4285714 103,87.4525714 103,88.7142857 C103,89.976 101.976,91 100.714286,91 Z" id="Shape" fill="#ED7161"></path>
                <path d="M96.595671,82 C96.2291221,82 95.8558681,81.9084336 95.5116697,81.7186008 C94.4343735,81.1200691 94.043239,79.7599727 94.6444686,78.6812757 C104.094278,61.6856551 102.552091,47.3767272 88.0331781,24.0518571 C84.4950871,48.6474904 62.5088581,68.5375032 44.2350543,68.5375032 C43.0013043,68.5375032 42,67.5369726 42,66.3041759 C42,65.0713792 43.0013043,64.0708486 44.2350543,64.0708486 C61.7869356,64.0708486 84.0547814,42.0167418 84.0547814,17.233509 C84.0547814,16.2508449 84.7007121,15.3798473 85.64167,15.0962147 C86.5826278,14.8103489 87.6018126,15.1766145 88.1494009,15.9940123 C104.199326,40.0514137 111.047532,58.3758641 98.5513435,80.8520698 C98.1423286,81.5846011 97.3801751,82 96.595671,82 Z" id="Shape" fill="#4C312C"></path>
                <path d="M85,16.5145442 C93.8889908,23.2503213 107.483918,19.6751605 114,10.4864704 C105.111009,3.74840304 91.5160822,7.32585416 85,16.5145442 Z" id="Shape" fill="#88C057"></path>
                <path d="M60,0.245043931 C61.7023478,11.2241132 73.9426104,18.445246 85,16.7549561 C83.2954034,5.77588683 71.0551408,-1.44524596 60,0.245043931 Z" id="Shape" fill="#659C35"></path>
                <path d="M82.7310939,122 C82.5677559,122 82.3998808,121.982262 82.2342742,121.946787 C74.1671938,120.181888 67.6064523,114.417144 65.1110112,106.903022 C64.7253521,105.738987 65.3764354,104.488481 66.56971,104.109338 C67.7629845,103.730196 69.0424652,104.368752 69.4281243,105.535004 C71.3995228,111.47269 76.8168985,116.215301 83.2256449,117.618794 C84.4484111,117.887077 85.2174606,119.073284 84.9452307,120.266142 C84.7047609,121.299362 83.7678362,122 82.7310939,122 Z" id="Shape" fill="#ED7161"></path>
            </g>
        </g>
    </g>
</svg>