<?xml version="1.0" encoding="UTF-8"?>
<svg width="105px" height="103px" viewBox="0 0 105 103" version="1.1" xmlns="http://www.w3.org/2000/svg" xmlns:xlink="http://www.w3.org/1999/xlink">
    <!-- Generator: Sketch 49.3 (51167) - http://www.bohemiancoding.com/sketch -->
    <title>cookie</title>
    <desc>Created with Sketch.</desc>
    <defs></defs>
    <g id="version-3" stroke="none" stroke-width="1" fill="none" fill-rule="evenodd">
        <g id="Desktop-HD-Copy-22" transform="translate(-525.000000, -2235.000000)" fill-rule="nonzero">
            <g id="cookie" transform="translate(525.000000, 2235.000000)">
                <path d="M94,37.999599 C94,57.7299443 78.9664779,73.9462928 59.7285092,75.8187671 C58.5015776,75.9382525 57.2570037,76 56.000401,76 C35.0134532,76 18,58.9865468 18,37.999599 C18,17.0134532 35.0134532,0 56.000401,0 C57.2570037,0 58.5015776,0.0617474929 59.7285092,0.181232949 C78.9664779,2.05370723 94,18.2700559 94,37.999599 Z" id="Shape" fill="#954C35"></path>
                <path d="M93,37.4996023 C93,57.0636445 78.08557,73.1433084 59,75 C39.9152257,73.1433084 25,57.0636445 25,37.4996023 C25,17.9363558 39.9152257,1.85669156 59,0 C78.08557,1.85669156 93,17.9363558 93,37.4996023 Z" id="Shape" fill="#AE583E"></path>
                <path d="M76,65.000401 C76,84.7299443 60.9664777,100.946293 41.7285092,102.818767 C40.5015774,102.938253 39.2570035,103 37.999599,103 C17.0134532,103 0,85.9873489 0,65.000401 C0,44.0134532 17.0134532,27 37.999599,27 C39.2570035,27 40.5015774,27.0617475 41.7285092,27.1812332 C60.9664777,29.0545093 76,45.2708577 76,65.000401 Z" id="Shape" fill="#C0694E"></path>
                <path d="M76,64.5003976 C76,84.0636444 61.0855698,100.143308 42,102 C22.9152257,100.143308 8,84.0636444 8,64.5003976 C8,44.9371507 22.9152257,28.8574867 42,27 C61.0855698,28.8574867 76,44.9371507 76,64.5003976 Z" id="Shape" fill="#C97E67"></path>
                <path d="M104.52517,88.1019997 C98.3480314,96.2317534 88.9889955,101.770795 78.3273357,102.818787 C77.1136714,102.938259 75.8817385,103 74.6363028,103 C53.849124,103 37,85.9907812 37,65.0044859 C37,43.0543908 55.3074274,25.8960316 76.6077132,27.0554778 C76.9174834,27.0723162 77.2066024,27.1492919 77.4703044,27.2727738 C78.4290039,27.7177892 79.0151846,28.7914396 78.7745171,29.9059833 C76.6204217,39.856693 83.721311,49.5716647 93.616488,50.5306533 C94.7356326,50.6389004 95.5942526,51.5569957 95.6975093,52.6883778 C96.1828162,58.0101231 99.0573262,62.5861667 103.197923,65.3645075 C104.274177,66.0845509 104.554558,67.5567107 103.830967,68.6343701 C100.448115,73.6666549 100.692755,80.409243 104.476719,85.1833386 C105.15027,86.0356837 105.181248,87.2376269 104.52517,88.1019997 Z" id="Shape" fill="#C0694E"></path>
                <path d="M104.522146,87.3895795 C98.3056665,95.460575 88.8870249,100.959583 78.1574633,102 C58.9836574,100.141259 44,84.0438456 44,64.4590042 C44,44.9306813 58.7950128,29.2225288 77.2949737,27 C78.259779,27.4417991 78.849693,28.5076896 78.6074927,29.6141779 C76.4396784,39.4929683 83.5857917,49.1377245 93.5439889,50.089782 C94.6702611,50.1972467 95.5343494,51.1087064 95.6382637,52.2319114 C96.1266615,57.5151936 99.0194786,62.0581636 103.186446,64.8164237 C104.269554,65.531263 104.551721,66.9927826 103.823521,68.0626533 C100.419126,73.058567 100.665323,79.7524226 104.473386,84.4920132 C105.151228,85.3381979 105.182402,86.531454 104.522146,87.3895795 Z" id="Shape" fill="#C97E67"></path>
                <g id="Group" transform="translate(9.000000, 6.000000)" fill="#7C3F2C">
                    <path d="M63.7714995,41.7262704 C63.7714995,44.7903037 61.2923295,47.2744596 58.234446,47.2744596 C55.1757609,47.2744596 52.6973924,44.7903037 52.6973924,41.7262704 C52.6973924,38.662237 55.1757609,36.1780811 58.234446,36.1780811 C61.2923295,36.1780811 63.7714995,38.662237 63.7714995,41.7262704 Z" id="Shape"></path>
                    <path d="M26.5021916,36.3909172 C26.5021916,39.4557536 24.0230216,41.9391062 20.965138,41.9391062 C17.9072544,41.9391062 15.4280844,39.4557536 15.4280844,36.3909172 C15.4280844,33.3268838 17.9072544,30.8427277 20.965138,30.8427277 C24.0230216,30.8427277 26.5021916,33.3268838 26.5021916,36.3909172 Z" id="Shape"></path>
                    <path d="M61.0013697,5.66384346 C61.0013697,8.72867991 58.5221997,11.2120327 55.4643161,11.2120327 C52.405631,11.2120327 49.9272625,8.72867991 49.9272625,5.66384346 C49.9272625,2.59981011 52.405631,0.115654206 55.4643161,0.115654206 C58.5221997,0.115654206 61.0013697,2.59981011 61.0013697,5.66384346 Z" id="Shape"></path>
                    <path d="M43.1125508,11.4256716 C43.1125508,14.489705 40.6341823,16.9738611 37.5754972,16.9738611 C34.5176136,16.9738611 32.0384436,14.489705 32.0384436,11.4256716 C32.0384436,8.36163849 34.5176136,5.87748258 37.5754972,5.87748258 C40.6341823,5.87748258 43.1125508,8.36163849 43.1125508,11.4256716 Z" id="Shape"></path>
                    <path d="M11.1686892,53.2491238 C11.1686892,56.3131572 8.69032051,58.7973131 5.63163545,58.7973131 C2.57375208,58.7973131 0.0945820831,56.3131572 0.0945820831,53.2491238 C0.0945820831,50.1850905 2.57375208,47.7009346 5.63163545,47.7009346 C8.69032051,47.7009346 11.1686892,50.1850905 11.1686892,53.2491238 Z" id="Shape"></path>
                    <path d="M24.5857041,82.2711011 C24.5857041,85.3351342 22.1065341,87.8192904 19.0486505,87.8192904 C15.9907671,87.8192904 13.5115969,85.3351342 13.5115969,82.2711011 C13.5115969,79.2062647 15.9907671,76.7221087 19.0486505,76.7221087 C22.1065341,76.7221087 24.5857041,79.2062647 24.5857041,82.2711011 Z" id="Shape"></path>
                    <path d="M50.7801034,61.5714078 C50.7801034,64.635441 48.3017349,67.1195969 45.2430499,67.1195969 C42.1851665,67.1195969 39.7059963,64.635441 39.7059963,61.5714078 C39.7059963,58.5073745 42.1851665,56.0232184 45.2430499,56.0232184 C48.3017349,56.0232184 50.7801034,58.5073745 50.7801034,61.5714078 Z" id="Shape"></path>
                    <path d="M78.8917918,82.057462 C78.8917918,85.1214953 76.4126218,87.6056512 73.3547382,87.6056512 C70.2968548,87.6056512 67.8176846,85.1214953 67.8176846,82.057462 C67.8176846,78.9934286 70.2968548,76.5092727 73.3547382,76.5092727 C76.4126218,76.5092727 78.8917918,78.9934286 78.8917918,82.057462 Z" id="Shape"></path>
                </g>
            </g>
        </g>
    </g>
</svg>