<?xml version="1.0" encoding="UTF-8"?>
<svg width="400px" height="400px" viewBox="0 0 400 400" version="1.1" xmlns="http://www.w3.org/2000/svg" xmlns:xlink="http://www.w3.org/1999/xlink">
    <!-- Generator: Sketch 49.3 (51167) - http://www.bohemiancoding.com/sketch -->
    <title>Group 3</title>
    <desc>Created with Sketch.</desc>
    <defs></defs>
    <g id="version-3" stroke="none" stroke-width="1" fill="none" fill-rule="evenodd">
        <g id="Desktop-HD-Copy-22" transform="translate(-520.000000, -123.000000)">
            <g id="Group-3" transform="translate(520.000000, 123.000000)">
                <circle id="Oval-3" fill="#F7F7F7" cx="200" cy="200" r="200"></circle>
                <g id="ice-cream-(2)" transform="translate(99.000000, 28.000000)" fill-rule="nonzero">
                    <path d="M194.988817,117.188877 C191.69754,112.564109 187.506049,108.777493 182.748446,105.984316 C180.078302,104.416845 178.965962,101.173071 179.876118,98.2113346 C190.373074,64.0581297 138.054684,22.2348045 106.489574,1.66125626 C101.366715,-1.67741611 94.5004397,0.199964954 91.7162773,5.64762179 C82.0035277,24.6530359 69.7286857,38.9978464 53.0449237,44.1754099 C22.8215145,53.5543518 9.71540117,78.4639933 15.9804296,100.471624 C16.7686127,103.240911 15.7265405,106.175439 13.3798893,107.839798 C9.80157763,110.377481 6.62299216,113.519058 4.01118262,117.188877 C-1.33706087,124.702383 -1.33706087,134.785425 4.01118262,142.298931 C11.4720751,152.78081 23.5354533,159.004902 36.3916548,159.004902 L162.608345,159.004902 C175.46521,159.004902 187.528588,152.781473 194.988817,142.298931 C200.337061,134.784762 200.337061,124.702383 194.988817,117.188877 Z" id="Shape" fill="#EFA8B8"></path>
                    <path d="M59.3084782,100.244705 C46.8824357,87.765528 43.56657,62.8943385 63.5598941,39.0196078 C60.2632566,41.0197893 56.7696961,42.6198023 53.0566691,43.7661592 C22.8266621,53.0987983 9.71768779,77.8861242 15.9840838,99.7851061 C16.772439,102.540721 15.7301393,105.460761 13.3829758,107.116904 C9.80388306,109.642058 6.62394067,112.768126 4.01156097,116.419827 C-1.33718699,123.8969 -1.33718699,133.929504 4.01156097,141.406577 C11.4740822,151.836707 23.5400937,158.029412 36.3991018,158.029412 L79.0147059,158.029412 C48.3238858,148.394335 49.3655224,122.504895 59.7513893,110.350607 C62.2868563,107.383682 62.0620856,103.010225 59.3084782,100.244705 Z" id="Shape" fill="#EB8EA3"></path>
                    <path d="M99.0122549,339.470588 C119.617205,339.470588 137.638253,325.598142 142.904139,305.683541 L172.661765,193.147059 L25.3627451,193.147059 L55.1203705,305.683541 C60.3862567,325.598142 78.4073045,339.470588 99.0122549,339.470588 Z" id="Shape" fill="#F4E08F"></path>
                    <path d="M172.661765,193.147059 L169.304481,205.880348 C81.1383286,210.323877 39.4360349,218.331265 93.1618592,339.470588 C75.071227,337.119265 59.879947,324.056432 55.1197078,306.00393 L25.3627451,193.147059 L172.661765,193.147059 Z" id="Shape" fill="#EBCE72"></path>
                    <path d="M19.1135875,150.22549 L179.886413,150.22549 C187.748535,150.22549 194.122549,156.648563 194.122549,164.571199 L194.122549,178.80135 C194.122549,186.723986 187.749198,193.147059 179.886413,193.147059 L19.1135875,193.147059 C11.2514645,193.147059 4.87745098,186.723986 4.87745098,178.80135 L4.87745098,164.571199 C4.87745098,156.647895 11.2514645,150.22549 19.1135875,150.22549 Z" id="Shape" fill="#F4E08F"></path>
                    <g id="Group" transform="translate(41.946078, 101.450980)" fill="#FFFFFF">
                        <ellipse id="Oval" cx="15.3813252" cy="12.3870312" rx="15.3813252" ry="12.3202872"></ellipse>
                        <ellipse id="Oval" cx="98.7510277" cy="12.3870312" rx="15.3813252" ry="12.3202872"></ellipse>
                    </g>
                    <g id="Group" transform="translate(61.455882, 90.720588)" fill="#414C59">
                        <path d="M5.06483922,15.3769771 C2.33508394,15.3769771 0.123211257,13.1938301 0.123211257,10.4995261 L0.123211257,5.17595098 C0.123211257,2.48164706 2.33508394,0.2985 5.06483922,0.2985 C7.79459451,0.2985 10.0064672,2.48164706 10.0064672,5.17595098 L10.0064672,10.4995261 C10.0064672,13.1931797 7.79459451,15.3769771 5.06483922,15.3769771 Z" id="Shape"></path>
                        <path d="M70.0479059,15.3769771 C67.3181506,15.3769771 65.1062779,13.1938301 65.1062779,10.4995261 L65.1062779,5.17595098 C65.1062779,2.48164706 67.3181506,0.2985 70.0479059,0.2985 C72.7776612,0.2985 74.9895338,2.48164706 74.9895338,5.17595098 L74.9895338,10.4995261 C74.9895338,13.1931797 72.7770023,15.3769771 70.0479059,15.3769771 Z" id="Shape"></path>
                        <path d="M37.5563725,19.4649314 C32.8453539,19.4649314 28.3656034,17.4508693 25.2648966,13.9404052 C23.472074,11.910085 23.6862112,8.8288366 25.7439051,7.05864706 C27.8009401,5.28910784 30.9220723,5.50111438 32.7162127,7.53143464 C33.938442,8.91598039 35.7029326,9.71002941 37.5570314,9.71002941 C39.4111302,9.71002941 41.174962,8.91533007 42.3978502,7.53143464 C44.1913317,5.50046405 47.3124639,5.28910784 49.3701578,7.05864706 C51.4278517,8.8288366 51.64133,11.910085 49.8491663,13.9404052 C46.7471417,17.4508693 42.2673912,19.4649314 37.5563725,19.4649314 Z" id="Shape"></path>
                    </g>
                    <path d="M155.387641,79.0147059 C152.319045,79.0147059 149.250449,77.8434297 146.909293,75.5028796 C142.226314,70.8204445 142.226314,63.2281723 146.909293,58.5457372 L160.972246,44.4824145 C165.654558,39.7999795 173.24663,39.7999795 177.928942,44.4824145 C182.611921,49.1648496 182.611921,56.7571218 177.928942,61.4395569 L163.865989,75.5028796 C161.524833,77.8434297 158.456237,79.0147059 155.387641,79.0147059 Z" id="Shape" fill="#799EE5"></path>
                    <path d="M49.5492588,71.2107843 L34.3428981,71.2107843 C27.7666192,71.2107843 22.4362745,65.9703072 22.4362745,59.504902 C22.4362745,53.0394967 27.7666192,47.7990196 34.3428981,47.7990196 L49.5492588,47.7990196 C56.1255376,47.7990196 61.4558824,53.0394967 61.4558824,59.504902 C61.4558824,65.9703072 56.1255376,71.2107843 49.5492588,71.2107843 Z" id="Shape" fill="#9D7D75"></path>
                    <path d="M104.254167,62.4313725 C101.22688,62.4313725 98.1995933,61.2758619 95.8899538,58.9668159 L84.4306393,47.5071791 C79.8107019,42.8877702 79.8107019,35.397691 84.4306393,30.7782822 C89.0499183,26.1588733 96.5397868,26.1588733 101.159066,30.7782822 L112.61838,42.2379189 C117.238318,46.8573278 117.238318,54.347407 112.61838,58.9668159 C110.308741,61.2765203 107.281454,62.4313725 104.254167,62.4313725 Z" id="Shape" fill="#E87684"></path>
                    <g id="Group" transform="translate(74.137255, 218.509804)" fill="#EBCE72">
                        <path d="M24.8678847,88.3449711 C23.5905434,88.3449711 22.3125364,87.8600506 21.3373905,86.8902095 C19.3877644,84.9492024 19.3877644,81.8038435 21.3373905,79.8628364 L44.1617954,57.1470912 C46.1120872,55.207409 49.2724918,55.207409 51.222118,57.1470912 C53.1717442,59.0880983 53.1717442,62.2334572 51.222118,64.1738019 L28.3977131,86.889547 C27.4232329,87.8600506 26.145226,88.3449711 24.8678847,88.3449711 Z" id="Shape"></path>
                        <path d="M5.49809227,34.3975606 C4.22075098,34.3975606 2.94274406,33.91264 1.96759815,32.9427989 C0.0179719723,31.0017918 0.0179719723,27.8564329 1.96759815,25.9160883 L25.8856308,2.11192171 C27.8359226,0.172239538 30.9963272,0.172239538 32.9459534,2.11192171 C34.8955796,4.05292881 34.8955796,7.19828775 32.9459534,9.13863239 L9.02792076,32.9427989 C8.05344048,33.9119776 6.77543356,34.3975606 5.49809227,34.3975606 Z" id="Shape"></path>
                        <path d="M38.8134696,48.0230329 C37.5354626,48.0230329 36.2581213,47.5374499 35.2829754,46.5676088 C33.3333493,44.6272642 33.3333493,41.4812428 35.2836411,39.5415606 L47.9006313,26.9852983 C49.8502574,25.0449537 53.0113277,25.0456161 54.9602882,26.9859608 C56.9099144,28.9263054 56.9099144,32.0723268 54.9596226,34.0126715 L42.3426324,46.5689338 C41.3688178,47.5381124 40.0908108,48.0230329 38.8134696,48.0230329 Z" id="Shape"></path>
                    </g>
                </g>
            </g>
        </g>
    </g>
</svg>