<?xml version="1.0" encoding="UTF-8"?>
<svg width="221px" height="375px" viewBox="0 0 221 375" version="1.1" xmlns="http://www.w3.org/2000/svg" xmlns:xlink="http://www.w3.org/1999/xlink">
    <!-- Generator: Sketch 49.3 (51167) - http://www.bohemiancoding.com/sketch -->
    <title>ice-cream</title>
    <desc>Created with Sketch.</desc>
    <defs></defs>
    <g id="version-3" stroke="none" stroke-width="1" fill="none" fill-rule="evenodd">
        <g id="Artboard" transform="translate(-832.000000, -186.000000)" fill-rule="nonzero">
            <g id="ice-cream" transform="translate(832.000000, 186.000000)">
                <path d="M215.736277,128.928094 C212.094796,123.840047 207.457317,119.674112 202.193489,116.601133 C199.239233,114.876644 198.008537,111.307929 199.015536,108.049505 C210.629403,70.4750553 152.744162,24.4621421 117.820419,1.82767008 C112.152471,-1.84544872 104.555601,0.219996139 101.475195,6.2133637 C90.7289761,27.1226162 77.1480501,42.9043963 58.6890802,48.6006143 C25.2497996,58.9190775 10.7491522,86.3240043 17.6808005,110.536216 C18.552849,113.582912 17.3998968,116.811401 14.8035541,118.642485 C10.8444981,121.434377 7.32770058,124.890657 4.43798581,128.928094 C-1.4793286,137.194254 -1.4793286,148.28735 4.43798581,156.55351 C12.6927421,168.085395 26.0397039,174.932976 40.2638481,174.932976 L179.910415,174.932976 C194.135292,174.932976 207.482254,168.086125 215.736277,156.55351 C221.653591,148.28662 221.653591,137.194254 215.736277,128.928094 Z" id="Shape" fill="#FCF9E3"></path>
                <path d="M65.6523901,110.985427 C51.8972,97.1753229 48.2266538,69.6515765 70.3585573,43.230563 C66.7092961,45.4440674 62.8420479,47.2147247 58.7318583,48.4833426 C25.2683085,58.8113244 10.7571371,86.242263 17.6938161,110.476811 C18.5664975,113.526317 17.4127085,116.757785 14.8144815,118.590557 C10.8525522,121.385024 7.33246831,124.844493 4.44065628,128.885655 C-1.48021876,137.160171 -1.48021876,148.26277 4.44065628,156.537286 C12.7014036,168.079809 26.0580521,174.932976 40.2925198,174.932976 L87.4664879,174.932976 C53.4928343,164.270301 54.6458893,135.619706 66.1426771,122.169141 C68.9493494,118.885789 68.7005362,114.045895 65.6523901,110.985427 Z" id="Shape" fill="#F7F2C9"></path>
                <path d="M109.58445,375 C132.367359,375 152.293245,359.654283 158.115739,337.624726 L191.018767,213.136729 L28.150134,213.136729 L61.053162,337.624726 C66.8756563,359.654283 86.8015418,375 109.58445,375 Z" id="Shape" fill="#F4E08F"></path>
                <path d="M191.018767,213.136729 L187.306615,227.134821 C89.8212371,232.019728 43.7109808,240.822494 103.115664,373.994638 C83.1128385,371.409757 66.3158292,357.049387 61.0524292,337.203722 L28.150134,213.136729 L191.018767,213.136729 Z" id="Shape" fill="#EBCE72"></path>
                <path d="M20.757699,165.884718 L198.411202,165.884718 C207.098825,165.884718 214.142091,173.106277 214.142091,182.013817 L214.142091,198.012993 C214.142091,206.920533 207.099557,214.142091 198.411202,214.142091 L20.757699,214.142091 C12.070076,214.142091 5.02680965,206.920533 5.02680965,198.012993 L5.02680965,182.013817 C5.02680965,173.105526 12.070076,165.884718 20.757699,165.884718 Z" id="Shape" fill="#F4E08F"></path>
                <g id="Group" transform="translate(47.252011, 111.595174)" fill="#FFFFFF">
                    <ellipse id="Oval" cx="17.0665682" cy="13.9274628" rx="17.0665682" ry="13.8524185"></ellipse>
                    <ellipse id="Oval" cx="109.570608" cy="13.9274628" rx="17.0665682" ry="13.8524185"></ellipse>
                </g>
                <g id="Group" transform="translate(68.364611, 100.536193)" fill="#414C59">
                    <path d="M5.62690063,16.9804973 C2.59421566,16.9804973 0.136884404,14.5696904 0.136884404,11.5944229 L0.136884404,5.71570219 C0.136884404,2.74043467 2.59421566,0.329627755 5.62690063,0.329627755 C8.65958559,0.329627755 11.1169168,2.74043467 11.1169168,5.71570219 L11.1169168,11.5944229 C11.1169168,14.5689723 8.65958559,16.9804973 5.62690063,16.9804973 Z" id="Shape"></path>
                    <path d="M77.8213459,16.9804973 C74.788661,16.9804973 72.3313297,14.5696904 72.3313297,11.5944229 L72.3313297,5.71570219 C72.3313297,2.74043467 74.788661,0.329627755 77.8213459,0.329627755 C80.8540309,0.329627755 83.3113622,2.74043467 83.3113622,5.71570219 L83.3113622,11.5944229 C83.3113622,14.5689723 80.8532989,16.9804973 77.8213459,16.9804973 Z" id="Shape"></path>
                    <path d="M41.7241233,21.4947458 C36.4903078,21.4947458 31.5134251,19.2706562 28.0686229,15.3941189 C26.076845,13.1520756 26.3147457,9.74951287 28.6007885,7.79472692 C30.8860993,5.84065912 34.3535935,6.07477382 36.3468354,8.31681707 C37.7046994,9.84574406 39.6650012,10.722597 41.7248553,10.722597 C43.7847094,10.722597 45.7442792,9.84502592 47.1028752,8.31681707 C49.0953851,6.07405567 52.5628793,5.84065912 54.8489221,7.79472692 C57.1349648,9.74951287 57.3721335,13.1520756 55.3810876,15.3941189 C51.9348214,19.2706562 46.9579387,21.4947458 41.7241233,21.4947458 Z" id="Shape"></path>
                </g>
                <path d="M172.155544,88.4718499 C168.749706,88.4718499 165.343868,87.1718494 162.745417,84.5740706 C157.547774,79.3770316 157.547774,70.9503618 162.745417,65.7533228 L178.353901,50.144428 C183.550803,44.947389 191.977252,44.947389 197.174154,50.144428 C202.371797,55.341467 202.371797,63.7681369 197.174154,68.9651759 L181.56567,84.5740706 C178.967219,87.1718494 175.561381,88.4718499 172.155544,88.4718499 Z" id="Shape" fill="#799EE5"></path>
                <path d="M54.1676755,78.4182306 L37.3202602,78.4182306 C30.0342763,78.4182306 24.1286863,72.7922384 24.1286863,65.8512064 C24.1286863,58.9101745 30.0342763,53.2841823 37.3202602,53.2841823 L54.1676755,53.2841823 C61.4536594,53.2841823 67.3592493,58.9101745 67.3592493,65.8512064 C67.3592493,72.7922384 61.4536594,78.4182306 54.1676755,78.4182306 Z" id="Shape" fill="#9D7D75"></path>
                <path d="M114.812263,69.3699732 C111.518941,69.3699732 108.225619,68.0798369 105.71301,65.5017698 L93.2466617,52.7069997 C88.2207285,47.5493952 88.2207285,39.1866658 93.2466617,34.0290613 C98.2718786,28.8714568 106.41995,28.8714568 111.445167,34.0290613 L123.911515,46.8238314 C128.937448,51.9814359 128.937448,60.3441653 123.911515,65.5017698 C121.398907,68.0805721 118.105585,69.3699732 114.812263,69.3699732 Z" id="Shape" fill="#E87684"></path>
                <g id="Group" transform="translate(81.434316, 242.292225)" fill="#EBCE72">
                    <path d="M27.1545388,98.6537898 C25.7597433,98.6537898 24.3642209,98.1122848 23.2994083,97.0292746 C21.1705099,94.8617749 21.1705099,91.3493895 23.2994083,89.1818897 L48.222565,63.8154844 C50.3521903,61.6494641 53.8032007,61.6494641 55.9320991,63.8154844 C58.0609975,65.9829842 58.0609975,69.4953695 55.9320991,71.6621295 L31.0089424,97.0285349 C29.9448566,98.1122848 28.5493343,98.6537898 27.1545388,98.6537898 Z" id="Shape"></path>
                    <path d="M6.00365338,38.4113512 C4.60885788,38.4113512 3.21333554,37.8698461 2.14852293,36.786836 C0.0196245328,34.6193362 0.0196245328,31.1069509 2.14852293,28.9401909 L28.2658688,2.35835813 C30.395494,0.192337865 33.8465045,0.192337865 35.9754029,2.35835813 C38.1043013,4.52585792 38.1043013,8.03824324 35.9754029,10.2050033 L9.858057,36.786836 C8.79397122,37.8691064 7.39844888,38.4113512 6.00365338,38.4113512 Z" id="Shape"></path>
                    <path d="M42.3824494,53.6267558 C40.9869271,53.6267558 39.5921316,53.084511 38.527319,52.0015009 C36.3984206,49.8347409 36.3984206,46.3216158 38.5280458,44.1555955 L52.3051947,30.1341651 C54.4340931,27.9674051 57.8858304,27.9681449 60.0140019,30.1349049 C62.1429003,32.3016649 62.1429003,35.81479 60.0132751,37.98155 L46.2361262,52.0029804 C45.1727673,53.0852508 43.7772449,53.6267558 42.3824494,53.6267558 Z" id="Shape"></path>
                </g>
            </g>
        </g>
    </g>
</svg>