<?xml version="1.0" encoding="UTF-8"?>
<svg width="220px" height="375px" viewBox="0 0 220 375" version="1.1" xmlns="http://www.w3.org/2000/svg" xmlns:xlink="http://www.w3.org/1999/xlink">
    <!-- Generator: Sketch 49.3 (51167) - http://www.bohemiancoding.com/sketch -->
    <title>ice-cream (2)</title>
    <desc>Created with Sketch.</desc>
    <defs></defs>
    <g id="version-3" stroke="none" stroke-width="1" fill="none" fill-rule="evenodd">
        <g id="Artboard" transform="translate(-510.000000, -186.000000)" fill-rule="nonzero">
            <g id="ice-cream-(2)" transform="translate(510.000000, 186.000000)">
                <path d="M215.396588,129.454009 C211.760841,124.345207 207.130664,120.16228 201.875124,117.076766 C198.92552,115.345242 197.696762,111.76197 198.702176,108.490254 C210.297755,70.7625328 152.503658,24.5619266 117.634904,1.8351254 C111.97588,-1.85297656 104.390973,0.220893534 101.315416,6.23870887 C90.5861183,27.2332531 77.0265763,43.0794093 58.596671,48.798863 C25.2100424,59.1594165 10.7322271,86.6761319 17.6529611,110.987109 C18.5236365,114.046232 17.3724997,117.287891 14.780245,119.126444 C10.8274229,121.929724 7.31616271,125.400103 4.43099796,129.454009 C-1.47699932,137.753888 -1.47699932,148.892235 4.43099796,157.192114 C12.6727567,168.771038 25.9987029,175.646552 40.2004505,175.646552 L179.627136,175.646552 C193.829616,175.646552 207.155562,168.771771 215.396588,157.192114 C221.304586,148.891502 221.304586,137.753888 215.396588,129.454009 Z" id="Shape" fill="#EFA8B8"></path>
                <path d="M65.515777,110.73644 C51.7892094,96.9511768 48.1263011,69.4769378 70.2121513,43.1034483 C66.5704836,45.3129712 62.7112827,47.0804436 58.6096457,48.3467796 C25.2157288,58.6561843 10.734753,86.0377823 17.6569978,110.228739 C18.5278633,113.27276 17.3764752,116.498415 14.7836547,118.327891 C10.8299696,121.117332 7.31721049,124.570577 4.43141591,128.60447 C-1.47713864,136.864103 -1.47713864,147.946731 4.43141591,156.206364 C12.6749738,167.728125 26.0038291,174.568966 40.2086768,174.568966 L87.2844828,174.568966 C53.3815234,163.92547 54.5321791,135.326409 66.0050437,121.900038 C68.8058758,118.622592 68.5575802,113.791403 65.515777,110.73644 Z" id="Shape" fill="#EB8EA3"></path>
                <path d="M109.375,375 C132.13649,375 152.043643,359.675647 157.860663,337.676758 L190.732759,213.362069 L28.0172414,213.362069 L60.8893366,337.676758 C66.7063571,359.675647 86.61351,375 109.375,375 Z" id="Shape" fill="#F4E08F"></path>
                <path d="M190.732759,213.362069 L187.024097,227.42804 C89.6303664,232.336634 43.5634591,241.182086 102.912295,375 C82.9282745,372.402584 66.1470564,357.972579 60.8886046,338.03068 L28.0172414,213.362069 L190.732759,213.362069 Z" id="Shape" fill="#EBCE72"></path>
                <path d="M21.1140392,165.948276 L198.713547,165.948276 C207.39853,165.948276 214.439655,173.043595 214.439655,181.795424 L214.439655,197.514921 C214.439655,206.26675 207.399262,213.362069 198.713547,213.362069 L21.1140392,213.362069 C12.4290567,213.362069 5.38793103,206.26675 5.38793103,197.514921 L5.38793103,181.795424 C5.38793103,173.042857 12.4290567,165.948276 21.1140392,165.948276 Z" id="Shape" fill="#F4E08F"></path>
                <g id="Group" transform="translate(46.336207, 112.068966)" fill="#FFFFFF">
                    <ellipse id="Oval" cx="16.9911538" cy="13.6834732" rx="16.9911538" ry="13.6097436"></ellipse>
                    <ellipse id="Oval" cx="109.086432" cy="13.6834732" rx="16.9911538" ry="13.6097436"></ellipse>
                </g>
                <g id="Group" transform="translate(67.887931, 100.215517)" fill="#414C59">
                    <path d="M5.59493156,16.9863506 C2.57947671,16.9863506 0.1361067,14.5747126 0.1361067,11.5984195 L0.1361067,5.71767241 C0.1361067,2.74137931 2.57947671,0.329741379 5.59493156,0.329741379 C8.61038642,0.329741379 11.0537564,2.74137931 11.0537564,5.71767241 L11.0537564,11.5984195 C11.0537564,14.5739943 8.61038642,16.9863506 5.59493156,16.9863506 Z" id="Shape"></path>
                    <path d="M77.3792064,16.9863506 C74.3637515,16.9863506 71.9203815,14.5747126 71.9203815,11.5984195 L71.9203815,5.71767241 C71.9203815,2.74137931 74.3637515,0.329741379 77.3792064,0.329741379 C80.3946612,0.329741379 82.8380312,2.74137931 82.8380312,5.71767241 L82.8380312,11.5984195 C82.8380312,14.5739943 80.3939334,16.9863506 77.3792064,16.9863506 Z" id="Shape"></path>
                    <path d="M41.487069,21.5021552 C36.2829893,21.5021552 31.3343826,19.2772989 27.9091519,15.3994253 C25.9286903,13.1566092 26.1652393,9.75287356 28.438294,7.79741379 C30.7106208,5.84267241 34.1584146,6.07686782 36.140332,8.31968391 C37.4904813,9.84913793 39.4396457,10.7262931 41.4877968,10.7262931 C43.5359479,10.7262931 45.4843845,9.84841954 46.8352616,8.31968391 C48.8164511,6.07614943 52.2642449,5.84267241 54.5372996,7.79741379 C56.8103543,9.75287356 57.0461755,13.1566092 55.0664417,15.3994253 C51.6397554,19.2772989 46.6911487,21.5021552 41.487069,21.5021552 Z" id="Shape"></path>
                </g>
                <path d="M171.650704,87.2844828 C168.260945,87.2844828 164.871186,85.9906194 162.285002,83.4051044 C157.111896,78.2325998 157.111896,69.8457111 162.285002,64.6732065 L177.8198,49.1379991 C182.992169,43.9654946 191.378837,43.9654946 196.551205,49.1379991 C201.724311,54.3105036 201.724311,62.6973924 196.551205,67.8698969 L181.016407,83.4051044 C178.430222,85.9906194 175.040463,87.2844828 171.650704,87.2844828 Z" id="Shape" fill="#799EE5"></path>
                <path d="M54.7351455,78.6637931 L37.9372683,78.6637931 C30.6727079,78.6637931 24.7844828,72.8748412 24.7844828,65.7327586 C24.7844828,58.5906761 30.6727079,52.8017241 37.9372683,52.8017241 L54.7351455,52.8017241 C61.9997058,52.8017241 67.887931,58.5906761 67.887931,65.7327586 C67.887931,72.8748412 61.9997058,78.6637931 54.7351455,78.6637931 Z" id="Shape" fill="#9D7D75"></path>
                <path d="M115.165537,68.9655172 C111.821411,68.9655172 108.477284,67.6890694 105.925915,65.1383558 L93.2672545,52.4793392 C88.1637887,47.3764573 88.1637887,39.1024572 93.2672545,33.9995752 C98.3699929,28.8966933 106.64376,28.8966933 111.746499,33.9995752 L124.405159,46.6585918 C129.508625,51.7614737 129.508625,60.0354739 124.405159,65.1383558 C121.85379,67.6897968 118.509664,68.9655172 115.165537,68.9655172 Z" id="Shape" fill="#E87684"></path>
                <g id="Group" transform="translate(81.896552, 241.379310)" fill="#EBCE72">
                    <path d="M27.4705882,97.5912651 C26.0595588,97.5912651 24.6477941,97.0555922 23.5705882,95.9842463 C21.4169118,93.840091 21.4169118,90.3655349 23.5705882,88.2213796 L48.7838235,63.1281765 C50.9382353,60.9854848 54.4294118,60.9854848 56.5830882,63.1281765 C58.7367647,65.2723318 58.7367647,68.7468879 56.5830882,70.8903114 L31.3698529,95.9835145 C30.2933824,97.0555922 28.8816176,97.5912651 27.4705882,97.5912651 Z" id="Shape"></path>
                    <path d="M6.07352941,37.9976518 C4.6625,37.9976518 3.25073529,37.4619789 2.17352941,36.390633 C0.0198529412,34.2464777 0.0198529412,30.7719216 2.17352941,28.6284981 L28.5948529,2.33295805 C30.7492647,0.190266341 34.2404412,0.190266341 36.3941176,2.33295805 C38.5477941,4.47711336 38.5477941,7.95166945 36.3941176,10.095093 L9.97279412,36.390633 C8.89632353,37.4612471 7.48455882,37.9976518 6.07352941,37.9976518 Z" id="Shape"></path>
                    <path d="M42.8757353,53.049183 C41.4639706,53.049183 40.0529412,52.5127782 38.9757353,51.4414324 C36.8220588,49.2980089 36.8220588,45.822721 38.9764706,43.6800293 L52.9139706,29.809613 C55.0676471,27.6661895 58.5595588,27.6669213 60.7125,29.8103448 C62.8661765,31.9537683 62.8661765,35.4290562 60.7117647,37.5724797 L46.7742647,51.442896 C45.6985294,52.51351 44.2867647,53.049183 42.8757353,53.049183 Z" id="Shape"></path>
                </g>
            </g>
        </g>
    </g>
</svg>