<?xml version="1.0" encoding="UTF-8"?>
<svg width="221px" height="375px" viewBox="0 0 221 375" version="1.1" xmlns="http://www.w3.org/2000/svg" xmlns:xlink="http://www.w3.org/1999/xlink">
    <!-- Generator: Sketch 49.3 (51167) - http://www.bohemiancoding.com/sketch -->
    <title>ice-cream (1)</title>
    <desc>Created with Sketch.</desc>
    <defs></defs>
    <g id="version-3" stroke="none" stroke-width="1" fill="none" fill-rule="evenodd">
        <g id="Artboard" transform="translate(-187.000000, -186.000000)" fill-rule="nonzero">
            <g id="ice-cream-(1)" transform="translate(187.000000, 186.000000)">
                <path d="M216.017328,129.030591 C212.371103,123.938499 207.727583,119.769252 202.456897,116.69383 C199.498792,114.96797 198.266493,111.396418 199.274804,108.135404 C210.903801,70.5310823 152.94315,24.4815893 117.97391,1.82912306 C112.298577,-1.84691583 104.691811,0.220171034 101.607392,6.21830327 C90.8471734,27.1441784 77.2485549,42.9385049 58.7655375,48.6392514 C25.2826938,58.9659176 10.7631557,86.3926312 17.7038342,110.624092 C18.5770187,113.673209 17.4225645,116.904265 14.8228394,118.736805 C10.8586258,121.530916 7.33724675,124.989944 4.4437674,129.030591 C-1.4812558,137.303322 -1.4812558,148.405237 4.4437674,156.677969 C12.7092776,168.219021 26.0736271,175.072046 40.3163019,175.072046 L180.144793,175.072046 C194.388202,175.072046 207.752552,168.219752 216.017328,156.677969 C221.942351,148.404507 221.942351,137.303322 216.017328,129.030591 Z" id="Shape" fill="#8B572A"></path>
                <path d="M65.7045832,111.055566 C51.9384578,97.230575 48.2649936,69.6771595 70.4144918,43.2276657 C66.7623294,45.4435561 62.8920068,47.2161221 58.7785496,48.4861075 C25.2883966,58.8252223 10.7656889,86.2857298 17.7078826,110.546401 C18.5812577,113.599194 17.4265515,116.834145 14.8262588,118.668894 C10.8611799,121.466373 7.33829756,124.929571 4.44418656,128.975088 C-1.48139552,137.258524 -1.48139552,148.373091 4.44418656,156.656527 C12.7115011,168.211491 26.0787681,175.072046 40.324552,175.072046 L87.5360231,175.072046 C53.5353607,164.397878 54.6893324,135.716399 66.1952599,122.251335 C69.0041636,118.964443 68.7551525,114.119332 65.7045832,111.055566 Z" id="Shape" fill="#63340B"></path>
                <path d="M109.690202,375 C132.517287,375 152.481809,359.631484 158.315593,337.569198 L191.282421,212.896254 L28.0979827,212.896254 L61.0648102,337.569198 C66.8985944,359.631484 86.8631166,375 109.690202,375 Z" id="Shape" fill="#F4E08F"></path>
                <path d="M191.282421,212.896254 L187.563071,227.00276 C89.8886672,231.925501 43.6890022,240.796443 103.208872,375 C83.1672609,372.395099 66.3376819,357.923509 61.0640761,337.92414 L28.0979827,212.896254 L191.282421,212.896254 Z" id="Shape" fill="#EBCE72"></path>
                <path d="M20.0128989,166.426513 L197.206121,166.426513 C205.871236,166.426513 212.896254,173.54228 212.896254,182.31933 L212.896254,198.084128 C212.896254,206.861178 205.871966,213.976945 197.206121,213.976945 L20.0128989,213.976945 C11.3477846,213.976945 4.32276657,206.861178 4.32276657,198.084128 L4.32276657,182.31933 C4.32276657,173.54154 11.3477846,166.426513 20.0128989,166.426513 Z" id="Shape" fill="#F4E08F"></path>
                <g id="Group" transform="translate(47.550432, 112.391931)" fill="#FFFFFF">
                    <ellipse id="Oval" cx="17.0401196" cy="13.1951028" rx="17.0401196" ry="13.1240046"></ellipse>
                    <ellipse id="Oval" cx="109.400803" cy="13.1951028" rx="17.0401196" ry="13.1240046"></ellipse>
                </g>
                <g id="Group" transform="translate(68.083573, 99.423631)" fill="#0D0E0E">
                    <path d="M5.68392613,17.0353026 C2.6205066,17.0353026 0.138271652,14.6167147 0.138271652,11.6318444 L0.138271652,5.73414986 C0.138271652,2.74927954 2.6205066,0.330691643 5.68392613,0.330691643 C8.74734567,0.330691643 11.2295806,2.74927954 11.2295806,5.73414986 L11.2295806,11.6318444 C11.2295806,14.6159942 8.74734567,17.0353026 5.68392613,17.0353026 Z" id="Shape"></path>
                    <path d="M78.610022,17.0353026 C75.5466025,17.0353026 73.0643675,14.6167147 73.0643675,11.6318444 L73.0643675,5.73414986 C73.0643675,2.74927954 75.5466025,0.330691643 78.610022,0.330691643 C81.6734415,0.330691643 84.1556765,2.74927954 84.1556765,5.73414986 L84.1556765,11.6318444 C84.1556765,14.6159942 81.6727021,17.0353026 78.610022,17.0353026 Z" id="Shape"></path>
                    <path d="M42.1469741,21.564121 C36.8601168,21.564121 31.8327961,19.332853 28.3530828,15.443804 C26.3411194,13.1945245 26.5814311,9.78097983 28.8906416,7.81988473 C31.1991127,5.85951009 34.7017481,6.0943804 36.7151904,8.34365994 C38.0868156,9.87752161 40.0669839,10.7572046 42.1477135,10.7572046 C44.228443,10.7572046 46.207872,9.87680115 47.5802366,8.34365994 C49.5929395,6.09365994 53.0955749,5.85951009 55.4047854,7.81988473 C57.7139959,9.78097983 57.9535682,13.1945245 55.9423442,15.443804 C52.461152,19.332853 47.4338313,21.564121 42.1469741,21.564121 Z" id="Shape"></path>
                </g>
                <path d="M171.804767,86.4553314 C168.492406,86.4553314 165.180046,85.1910109 162.652912,82.6645312 C157.597925,77.6101308 157.597925,69.4147405 162.652912,64.3603402 L177.833004,49.1798493 C182.887271,44.1254489 191.082446,44.1254489 196.136713,49.1798493 C201.191701,54.2342496 201.191701,62.4296399 196.136713,67.4840403 L180.956622,82.6645312 C178.429488,85.1910109 175.117127,86.4553314 171.804767,86.4553314 Z" id="Shape" fill="#799EE5"></path>
                <path d="M54.8928837,78.8904899 L38.0465976,78.8904899 C30.7611019,78.8904899 24.8559078,73.0848551 24.8559078,65.9221902 C24.8559078,58.7595253 30.7611019,52.9538905 38.0465976,52.9538905 L54.8928837,52.9538905 C62.1783793,52.9538905 68.0835735,58.7595253 68.0835735,65.9221902 C68.0835735,73.0848551 62.1783793,78.8904899 54.8928837,78.8904899 Z" id="Shape" fill="#9D7D75"></path>
                <path d="M115.497426,69.1642651 C112.143663,69.1642651 108.789899,67.8841388 106.231177,65.3260744 L93.5360362,52.6305765 C88.4178631,47.5129889 88.4178631,39.2151444 93.5360362,34.0975567 C98.6534799,28.9799691 106.951091,28.9799691 112.068535,34.0975567 L124.763676,46.7930546 C129.881849,51.9106422 129.881849,60.2084867 124.763676,65.3260744 C122.204954,67.8848682 118.85119,69.1642651 115.497426,69.1642651 Z" id="Shape" fill="#E87684"></path>
                <g id="Group" transform="translate(81.051873, 242.074928)" fill="#EBCE72">
                    <path d="M27.0747584,97.872508 C25.6840609,97.872508 24.2926386,97.3352913 23.2309544,96.260858 C21.1083107,94.1105236 21.1083107,90.6259543 23.2309544,88.4756199 L48.0808866,63.310102 C50.204255,61.1612354 53.6451263,61.1612354 55.76777,63.310102 C57.8904136,65.4604365 57.8904136,68.9450057 55.76777,71.0946062 L30.9178378,96.2601241 C29.8568783,97.3352913 28.465456,97.872508 27.0747584,97.872508 Z" id="Shape"></path>
                    <path d="M5.98601458,38.1071551 C4.595317,38.1071551 3.20389473,37.5699385 2.14221054,36.4955052 C0.0195668757,34.3451708 0.0195668757,30.8606015 2.14221054,28.711001 L28.1828234,2.33968128 C30.3061917,0.190814659 33.7470631,0.190814659 35.8697067,2.33968128 C37.9923504,4.4900157 37.9923504,7.97458493 35.8697067,10.1241854 L9.82909391,36.4955052 C8.76813443,37.5692046 7.37671215,38.1071551 5.98601458,38.1071551 Z" id="Shape"></path>
                    <path d="M42.2579293,53.2020625 C40.866507,53.2020625 39.4758095,52.6641119 38.4141253,51.5896786 C36.2914816,49.4400781 36.2914816,45.9547749 38.41485,43.8059083 L52.1515214,29.8955197 C54.2741651,27.7459192 57.7157611,27.7466531 59.8376801,29.8962536 C61.9603238,32.0458541 61.9603238,35.5311573 59.8369554,37.6807578 L46.1002839,51.5911464 C45.0400492,52.6648458 43.6486269,53.2020625 42.2579293,53.2020625 Z" id="Shape"></path>
                </g>
            </g>
        </g>
    </g>
</svg>