<?xml version="1.0" encoding="UTF-8"?>
<svg width="118px" height="92px" viewBox="0 0 118 92" version="1.1" xmlns="http://www.w3.org/2000/svg" xmlns:xlink="http://www.w3.org/1999/xlink">
    <!-- Generator: Sketch 49.3 (51167) - http://www.bohemiancoding.com/sketch -->
    <title>sprinkles</title>
    <desc>Created with Sketch.</desc>
    <defs></defs>
    <g id="version-3" stroke="none" stroke-width="1" fill="none" fill-rule="evenodd">
        <g id="Desktop-HD-Copy-22" transform="translate(-253.000000, -2239.000000)" fill-rule="nonzero">
            <g id="sprinkles" transform="translate(253.000000, 2238.000000)">
                <rect id="Rectangle-5" fill="#67B9F5" transform="translate(89.489704, 17.112039) rotate(-51.000000) translate(-89.489704, -17.112039) " x="86.9897038" y="10.112039" width="5" height="14" rx="2.5"></rect>
                <rect id="Rectangle-5-Copy" fill="#7ED321" transform="translate(107.656218, 32.125975) rotate(-95.000000) translate(-107.656218, -32.125975) " x="105.156218" y="22.125975" width="5" height="20" rx="2.5"></rect>
                <rect id="Rectangle-5-Copy-2" fill="#7ED321" transform="translate(60.821142, 9.000000) rotate(-51.000000) translate(-60.821142, -9.000000) " x="58.3211419" y="-0.999999845" width="5" height="20" rx="2.5"></rect>
                <rect id="Rectangle-5-Copy-3" fill="#67B9F5" transform="translate(37.064026, 57.208355) rotate(-22.000000) translate(-37.064026, -57.208355) " x="34.5640256" y="47.2083551" width="5" height="20" rx="2.5"></rect>
                <rect id="Rectangle-5-Copy-4" fill="#F8E71C" transform="translate(86.821142, 61.000000) rotate(-51.000000) translate(-86.821142, -61.000000) " x="84.3211419" y="51.0000002" width="5" height="20" rx="2.5"></rect>
                <rect id="Rectangle-5-Copy-10" fill="#7ED321" transform="translate(55.191475, 63.150032) rotate(4.000000) translate(-55.191475, -63.150032) " x="52.6914749" y="53.1500317" width="5" height="20" rx="2.5"></rect>
                <path d="M33.3125514,16.2982403 C33.9515499,15.5091429 35.1092504,15.3874637 35.8983478,16.0264622 L44.4710712,22.9685167 C45.2601686,23.6075152 45.3818479,24.7652157 44.7428494,25.5543131 C44.1038509,26.3434105 42.9461505,26.4650897 42.1570531,25.8260912 L33.5843296,18.8840366 C32.7952322,18.2450382 32.673553,17.0873377 33.3125514,16.2982403 Z" id="Rectangle-5-Copy-9" fill="#EB8EA3" transform="translate(39.027700, 20.926277) rotate(103.000000) translate(-39.027700, -20.926277) "></path>
                <path d="M64.6819688,24.7822735 C65.3209673,23.9931761 66.4786678,23.8714969 67.2677652,24.5104953 L75.8404886,31.4525499 C76.629586,32.0915484 76.7512653,33.2492488 76.1122668,34.0383462 C75.4732683,34.8274437 74.3155679,34.9491229 73.5264705,34.3101244 L64.953747,27.3680698 C64.1646496,26.7290713 64.0429704,25.5713709 64.6819688,24.7822735 Z" id="Rectangle-5-Copy-8" fill="#F8E71C" transform="translate(70.397118, 29.410310) rotate(96.000000) translate(-70.397118, -29.410310) "></path>
                <path d="M45.5083242,31.4154853 C46.1473227,30.6263878 47.3050231,30.5047086 48.0941205,31.1437071 L56.666844,38.0857617 C57.4559414,38.7247602 57.5776206,39.8824606 56.9386222,40.671558 C56.2996237,41.4606554 55.1419232,41.5823346 54.3528258,40.9433362 L45.7801024,34.0012816 C44.9910049,33.3622831 44.8693257,32.2045827 45.5083242,31.4154853 Z" id="Rectangle-5-Copy-7" fill="#E53B3B" transform="translate(51.223473, 36.043522) rotate(38.000000) translate(-51.223473, -36.043522) "></path>
                <rect id="Rectangle-5-Copy-5" fill="#7ED321" transform="translate(19.867401, 43.250613) rotate(8.000000) translate(-19.867401, -43.250613) " x="17.3674011" y="33.2506134" width="5" height="20" rx="2.5"></rect>
                <rect id="Rectangle-5-Copy-6" fill="#EB8EA3" transform="translate(89.614084, 42.482708) rotate(-47.000000) translate(-89.614084, -42.482708) " x="87.7401153" y="34.9868336" width="3.7479373" height="14.9917492" rx="1.87396865"></rect>
                <rect id="Rectangle-5-Copy-21" fill="#67B9F5" transform="translate(63.517404, 87.176034) rotate(-51.000000) translate(-63.517404, -87.176034) " x="61.0174041" y="80.1760336" width="5" height="14" rx="2.5"></rect>
                <rect id="Rectangle-5-Copy-19" fill="#F5A623" transform="translate(16.344761, 69.236069) rotate(-51.000000) translate(-16.344761, -69.236069) " x="13.8447606" y="59.2360692" width="5" height="20" rx="2.5"></rect>
                <rect id="Rectangle-5-Copy-17" fill="#F8E71C" transform="translate(22.085460, 19.306306) rotate(-15.000000) translate(-22.085460, -19.306306) " x="19.5854598" y="9.30630594" width="5" height="20" rx="2.5"></rect>
                <path d="M71.8361695,69.5343101 C72.475168,68.7452127 73.6328684,68.6235335 74.4219658,69.262532 L82.9946893,76.2045866 C83.7837867,76.843585 83.9054659,78.0012855 83.2664674,78.7903829 C82.627469,79.5794803 81.4697685,79.7011595 80.6806711,79.062161 L72.1079477,72.1201065 C71.3188502,71.481108 71.197171,70.3234075 71.8361695,69.5343101 Z" id="Rectangle-5-Copy-15" fill="#EB8EA3" transform="translate(77.551318, 74.162346) rotate(103.000000) translate(-77.551318, -74.162346) "></path>
                <path d="M32.2055881,79.0183423 C32.8445866,78.2292449 34.002287,78.1075657 34.7913844,78.7465641 L43.3641079,85.6886187 C44.1532053,86.3276172 44.2748845,87.4853177 43.6358861,88.2744151 C42.9968876,89.0635125 41.8391871,89.1851917 41.0500897,88.5461932 L32.4773663,81.6041386 C31.6882688,80.9651402 31.5665896,79.8074397 32.2055881,79.0183423 Z" id="Rectangle-5-Copy-14" fill="#E53B3B" transform="translate(37.920737, 83.646379) rotate(96.000000) translate(-37.920737, -83.646379) "></path>
                <path d="M64.3802726,51.3268629 C65.019271,50.5377654 66.1769715,50.4160862 66.9660689,51.0550847 L75.5387924,57.9971393 C76.3278898,58.6361378 76.449569,59.7938382 75.8105705,60.5829356 C75.171572,61.372033 74.0138716,61.4937122 73.2247742,60.8547138 L64.6520507,53.9126592 C63.8629533,53.2736607 63.7412741,52.1159603 64.3802726,51.3268629 Z" id="Rectangle-5-Copy-13" fill="#F5A623" transform="translate(70.095422, 55.954899) rotate(38.000000) translate(-70.095422, -55.954899) "></path>
                <rect id="Rectangle-5-Copy-11" fill="#EB8EA3" transform="translate(6.760179, 53.482708) rotate(-47.000000) translate(-6.760179, -53.482708) " x="4.88621055" y="45.9868333" width="3.7479373" height="14.9917492" rx="1.87396865"></rect>
            </g>
        </g>
    </g>
</svg>