<?xml version="1.0" encoding="UTF-8"?>
<svg width="63px" height="122px" viewBox="0 0 63 122" version="1.1" xmlns="http://www.w3.org/2000/svg" xmlns:xlink="http://www.w3.org/1999/xlink">
    <!-- Generator: Sketch 49.3 (51167) - http://www.bohemiancoding.com/sketch -->
    <title>syrup</title>
    <desc>Created with Sketch.</desc>
    <defs></defs>
    <g id="version-3" stroke="none" stroke-width="1" fill="none" fill-rule="evenodd">
        <g id="Desktop-HD-Copy-22" transform="translate(-810.000000, -2221.000000)" fill-rule="nonzero">
            <g id="syrup" transform="translate(810.000000, 2221.000000)">
                <path d="M47.9271346,122 L15.0723893,122 C10.6054617,122 6.72766579,118.903879 5.7141212,114.527984 L1.82275742,97.7290576 C-2.02385615,81.1235937 0.262689022,63.6779559 8.25631383,48.6427 L16.5729494,33 L46.4270506,33 L54.7436862,48.6427 C62.737311,63.6779559 65.0238561,81.1235937 61.1772426,97.7290576 L57.2858788,114.527984 C56.2716201,118.903879 52.3940622,122 47.9271346,122 Z" id="Shape" fill="#B18E82"></path>
                <path d="M15.1379287,122 L48.1352468,122 C49.8940551,122 51.5608229,121.522329 53,120.68024 C8.45962117,105.215439 12.0111851,71.1212397 20.7007545,43.9141185 C21.6797296,40.8491243 24.5353725,38.7775416 27.748419,38.7775416 L49.7135603,38.7775416 L46.6286531,33 L16.6447615,33 L8.29203593,48.6427 C0.263722898,63.6779559 -2.03250564,81.1235937 1.83056119,97.7290576 L5.73881149,114.527984 C6.75723248,118.903879 10.651617,122 15.1379287,122 Z" id="Shape" fill="#A38277"></path>
                <path d="M47.5975712,20 L16.4024288,20 C14.5232949,20 13,21.5464248 13,23.4540916 L13,30.5459084 C13,32.4535752 14.5232949,34 16.4024288,34 L47.5975712,34 C49.4767051,34 51,32.4535752 51,30.5459084 L51,23.4540916 C51,21.5464248 49.4767051,20 47.5975712,20 Z" id="Shape" fill="#F8E8B9"></path>
                <path d="M16.3371732,20 C14.4940794,20 13,21.5464248 13,23.4540916 L13,30.5459084 C13,32.4535752 14.4940794,34 16.3371732,34 L34,34 C28.6439453,30.8035253 27.1894472,24.4204565 30.2285961,20 L16.3371732,20 Z" id="Shape" fill="#F0DBA5"></path>
                <path d="M39.6397283,52 L24.3602717,52 C20.3009253,52 16.7159473,54.6072311 15.5211966,58.4281362 L12.5281513,67.9998167 C10.4906162,74.5156309 10.4906162,81.4843691 12.5281513,88.0001833 L15.5211966,97.5718638 C16.7159473,101.393007 20.3009253,104 24.3602717,104 L39.6397283,104 C43.6990747,104 47.2840527,101.392769 48.4788034,97.5718638 L51.4718487,88.0001833 C53.5093838,81.4843691 53.5093838,74.5156309 51.4718487,67.9998167 L48.4788034,58.4281362 C47.2840527,54.6069928 43.6990747,52 39.6397283,52 Z" id="Shape" fill="#F8E8B9"></path>
                <path d="M15.5098382,97.5198751 C16.7015237,101.371923 20.2773039,104 24.3262357,104 L26,104 C13.470051,89.601297 13.9359641,71.1036388 18.094196,54 C16.9143333,55.0767383 16.0044637,56.4601897 15.5095969,58.0593251 L12.5242306,67.7084184 C10.4919231,74.2769305 10.4919231,81.3020295 12.5242306,87.8705416 L15.5098382,97.5198751 Z" id="Shape" fill="#F0DBA5"></path>
                <path d="M33.8811839,86.8423431 L20.7238871,82.0826147 C19.3647785,81.5909896 18.6639882,80.0971416 19.1586216,78.7462989 L25.7620852,60.7134027 C26.2567187,59.36256 27.7597075,58.6660317 29.1188161,59.1576569 L42.2761129,63.9173853 C43.6352215,64.4090104 44.3360118,65.9028584 43.8413784,67.2537011 L37.2379148,85.2865973 C36.7432813,86.63744 35.2402925,87.3339683 33.8811839,86.8423431 Z" id="Shape" fill="#9D7D75"></path>
                <g id="Group" transform="translate(22.000000, 61.000000)" fill="#8A6C68">
                    <rect id="Rectangle-path" transform="translate(10.000514, 12.519969) rotate(-160.001229) translate(-10.000514, -12.519969) " x="0.167586533" y="10.6995802" width="19.6658545" height="3.64077686"></rect>
                    <rect id="Rectangle-path" transform="translate(9.998770, 12.524036) rotate(-160.001229) translate(-9.998770, -12.524036) " x="8.1695015" y="0.0398124722" width="3.65853675" height="24.9684477"></rect>
                </g>
                <path d="M38.2563208,97 L25.7436792,97 C24.7804708,97 24,96.1045333 24,95 C24,93.8954667 24.7804708,93 25.7436792,93 L38.2563208,93 C39.2195292,93 40,93.8954667 40,95 C40,96.1048 39.2195292,97 38.2563208,97 Z" id="Shape" fill="#414C59"></path>
                <path d="M5,112 L5.46575554,114.104091 C6.48931221,118.728234 10.4042543,122 14.9142483,122 L48.0857517,122 C52.5957457,122 56.5106878,118.728234 57.5342445,114.104091 L58,112 L5,112 Z" id="Shape" fill="#9D7D75"></path>
                <path d="M14.7125203,122 L47.2090739,122 C48.9411906,122 50.5826638,121.495243 52,120.605151 C45.4105636,118.150187 39.8878965,115.252201 35.2926193,112 L5,112 L5.45627868,114.104038 C6.45900876,118.728317 10.2942924,122 14.7125203,122 Z" id="Shape" fill="#8A6C68"></path>
                <rect id="Rectangle-path" fill="#B18E82" x="24" y="12" width="16" height="7"></rect>
                <path d="M41.9127345,12 L22.0872655,12 C20.382145,12 19,10.6508258 19,8.98638076 L19,8.06653144 C19,6.15612866 19.6412013,4.2983483 20.8255238,2.77739786 C22.1881953,1.02764416 24.3108091,0 26.562613,0 L37.4376244,0 C39.6894284,0 41.8118047,1.02764416 43.1744762,2.77739786 C44.3587987,4.2983483 45,6.15612866 45,8.06653144 L45,8.98638076 C45,10.6508258 43.617855,12 41.9127345,12 Z" id="Shape" fill="#9D7D75"></path>
                <path d="M29.6793299,0 L26.5139217,0 C24.2765455,0 22.1677678,1.02764416 20.8138273,2.77739786 C19.637093,4.2983483 19,6.15612866 19,8.06653144 L19,8.98638076 C19,10.6508258 20.3732893,12 22.0674847,12 L34,12 C28.2607362,9.17670241 27.3881548,2.9470878 29.6793299,0 Z" id="Shape" fill="#8A6C68"></path>
            </g>
        </g>
    </g>
</svg>