<svg height="511pt" viewBox="0 -5 511.99963 511" width="511pt" xmlns="http://www.w3.org/2000/svg"><path d="m455.820312 185.601562c0 96.109376-73.230468 175.101563-166.941406 184.222657-5.976562.582031-12.039062.882812-18.160156.882812-102.230469 0-185.105469-82.875-185.105469-185.105469 0-102.226562 82.875-185.101562 185.105469-185.101562 6.121094 0 12.183594.300781 18.160156.882812 93.710938 9.121094 166.941406 88.113282 166.941406 184.21875zm0 0" fill="#954c35"/><path d="m455.820312 185.601562c0 96.109376-73.230468 175.101563-166.941406 184.222657-93.707031-9.121094-166.941406-88.113281-166.941406-184.222657 0-96.105468 73.234375-175.097656 166.941406-184.21875 93.710938 9.121094 166.941406 88.113282 166.941406 184.21875zm0 0" fill="#ae583e"/><path d="m370.207031 316.375c0 96.105469-73.230469 175.097656-166.941406 184.21875-5.976563.582031-12.039063.882812-18.164063.882812-102.226562 0-185.101562-82.871093-185.101562-185.101562s82.875-185.105469 185.101562-185.105469c6.125 0 12.1875.300781 18.164063.882813 93.710937 9.125 166.941406 88.117187 166.941406 184.222656zm0 0" fill="#c0694e"/><path d="m370.207031 316.375c0 96.105469-73.230469 175.097656-166.941406 184.21875-93.707031-9.121094-166.941406-88.113281-166.941406-184.21875s73.234375-175.097656 166.941406-184.222656c93.710937 9.125 166.941406 88.117187 166.941406 184.222656zm0 0" fill="#c97e67"/><path d="m509.664062 428.898438c-30.378906 39.605468-76.40625 66.589843-128.839843 71.695312-5.96875.582031-12.027344.882812-18.152344.882812-102.230469 0-185.09375-82.863281-185.09375-185.101562 0-106.933594 90.035156-190.523438 194.789063-184.875 1.523437.082031 2.945312.457031 4.242187 1.058594 4.714844 2.167968 7.597656 7.398437 6.414063 12.828125-10.59375 48.476562 24.328124 95.804687 72.992187 100.476562 5.503906.527344 9.726563 5 10.234375 10.511719 2.386719 25.925781 16.523438 48.21875 36.886719 61.753906 5.292969 3.507813 6.671875 10.679688 3.113281 15.929688-16.636719 24.515625-15.433594 57.363281 3.175781 80.621094 3.3125 4.152343 3.464844 10.007812.238281 14.21875zm0 0" fill="#c0694e"/><path d="m509.664062 428.898438c-30.378906 39.605468-76.40625 66.589843-128.839843 71.695312-93.699219-9.121094-166.921875-88.113281-166.921875-184.21875 0-95.828125 72.300781-172.910156 162.707031-183.816406 4.714844 2.167968 7.597656 7.398437 6.414063 12.828125-10.59375 48.476562 24.328124 95.804687 72.992187 100.476562 5.503906.527344 9.726563 5 10.234375 10.511719 2.386719 25.925781 16.523438 48.21875 36.886719 61.753906 5.292969 3.507813 6.671875 10.679688 3.113281 15.929688-16.636719 24.515625-15.433594 57.363281 3.175781 80.621094 3.3125 4.152343 3.464844 10.007812.238281 14.21875zm0 0" fill="#c97e67"/><g fill="#7c3f2c"><path d="m354.785156 232.941406c0 14.902344-12.082031 26.984375-26.984375 26.984375-14.90625 0-26.984375-12.082031-26.984375-26.984375s12.078125-26.984375 26.984375-26.984375c14.902344 0 26.984375 12.082031 26.984375 26.984375zm0 0"/><path d="m173.15625 206.992188c0 14.90625-12.082031 26.984374-26.984375 26.984374s-26.984375-12.078124-26.984375-26.984374c0-14.902344 12.082031-26.984376 26.984375-26.984376s26.984375 12.082032 26.984375 26.984376zm0 0"/><path d="m341.285156 57.546875c0 14.90625-12.082031 26.984375-26.984375 26.984375-14.90625 0-26.984375-12.078125-26.984375-26.984375 0-14.902344 12.078125-26.984375 26.984375-26.984375 14.902344 0 26.984375 12.082031 26.984375 26.984375zm0 0"/><path d="m254.105469 85.570312c0 14.902344-12.078125 26.984376-26.984375 26.984376-14.902344 0-26.984375-12.082032-26.984375-26.984376 0-14.902343 12.082031-26.984374 26.984375-26.984374 14.90625 0 26.984375 12.082031 26.984375 26.984374zm0 0"/><path d="m98.429688 288.984375c0 14.902344-12.078126 26.984375-26.984376 26.984375-14.902343 0-26.984374-12.082031-26.984374-26.984375s12.082031-26.984375 26.984374-26.984375c14.90625 0 26.984376 12.082031 26.984376 26.984375zm0 0"/><path d="m163.816406 430.136719c0 14.902343-12.082031 26.984375-26.984375 26.984375-14.902343 0-26.984375-12.082032-26.984375-26.984375 0-14.90625 12.082032-26.988281 26.984375-26.988281 14.902344 0 26.984375 12.082031 26.984375 26.988281zm0 0"/><path d="m291.472656 329.460938c0 14.902343-12.078125 26.984374-26.984375 26.984374-14.902343 0-26.984375-12.082031-26.984375-26.984374 0-14.902344 12.082032-26.984376 26.984375-26.984376 14.90625 0 26.984375 12.082032 26.984375 26.984376zm0 0"/><path d="m428.472656 429.097656c0 14.902344-12.082031 26.984375-26.984375 26.984375-14.902343 0-26.984375-12.082031-26.984375-26.984375s12.082032-26.984375 26.984375-26.984375c14.902344 0 26.984375 12.082031 26.984375 26.984375zm0 0"/></g></svg>