<?xml version="1.0" encoding="UTF-8"?>
<svg width="118px" height="92px" viewBox="0 0 118 92" version="1.1" xmlns="http://www.w3.org/2000/svg" xmlns:xlink="http://www.w3.org/1999/xlink">
    <!-- Generator: Sketch 49.3 (51167) - http://www.bohemiancoding.com/sketch -->
    <title>Sprinkles</title>
    <desc>Created with Sketch.</desc>
    <defs></defs>
    <g id="version-3" stroke="none" stroke-width="1" fill="none" fill-rule="evenodd">
        <g id="Desktop-HD-Copy-19" transform="translate(-200.000000, -1246.000000)">
            <g id="Sprinkles" transform="translate(200.000000, 1245.000000)">
                <rect id="Rectangle-5" fill="#67B9F5" transform="translate(89.489704, 17.112039) rotate(-51.000000) translate(-89.489704, -17.112039) " x="86.9897039" y="10.1120388" width="5" height="14" rx="2.5"></rect>
                <rect id="Rectangle-5-Copy" fill="#7ED321" transform="translate(107.656218, 32.125975) rotate(-95.000000) translate(-107.656218, -32.125975) " x="105.156218" y="22.1259754" width="5" height="20" rx="2.5"></rect>
                <rect id="Rectangle-5-Copy-2" fill="#7ED321" transform="translate(60.821142, 9.000000) rotate(-51.000000) translate(-60.821142, -9.000000) " x="58.3211418" y="-1" width="5" height="20" rx="2.5"></rect>
                <rect id="Rectangle-5-Copy-3" fill="#67B9F5" transform="translate(37.064026, 57.208355) rotate(-22.000000) translate(-37.064026, -57.208355) " x="34.5640256" y="47.208355" width="5" height="20" rx="2.5"></rect>
                <rect id="Rectangle-5-Copy-4" fill="#F8E71C" transform="translate(86.821142, 61.000000) rotate(-51.000000) translate(-86.821142, -61.000000) " x="84.3211418" y="51" width="5" height="20" rx="2.5"></rect>
                <rect id="Rectangle-5-Copy-10" fill="#7ED321" transform="translate(55.191475, 63.150032) rotate(4.000000) translate(-55.191475, -63.150032) " x="52.6914749" y="53.1500317" width="5" height="20" rx="2.5"></rect>
                <path d="M33.3125506,16.2982403 C33.9515491,15.5091429 35.1092496,15.3874637 35.898347,16.0264622 L44.4710704,22.9685167 C45.2601678,23.6075152 45.3818471,24.7652157 44.7428486,25.5543131 C44.1038501,26.3434105 42.9461497,26.4650897 42.1570523,25.8260912 L33.5843288,18.8840366 C32.7952314,18.2450382 32.6735522,17.0873377 33.3125506,16.2982403 Z" id="Rectangle-5-Copy-9" fill="#EB8EA3" transform="translate(39.027700, 20.926277) rotate(103.000000) translate(-39.027700, -20.926277) "></path>
                <path d="M64.6819689,24.7822738 C65.3209674,23.9931764 66.4786679,23.8714972 67.2677653,24.5104956 L75.8404887,31.4525502 C76.6295861,32.0915487 76.7512654,33.2492491 76.1122669,34.0383465 C75.4732684,34.827444 74.315568,34.9491232 73.5264706,34.3101247 L64.9537471,27.3680701 C64.1646497,26.7290716 64.0429705,25.5713712 64.6819689,24.7822738 Z" id="Rectangle-5-Copy-8" fill="#F8E71C" transform="translate(70.397118, 29.410310) rotate(96.000000) translate(-70.397118, -29.410310) "></path>
                <path d="M45.5083239,31.4154853 C46.1473224,30.6263878 47.3050228,30.5047086 48.0941202,31.1437071 L56.6668437,38.0857617 C57.4559411,38.7247602 57.5776203,39.8824606 56.9386219,40.671558 C56.2996234,41.4606554 55.1419229,41.5823346 54.3528255,40.9433362 L45.7801021,34.0012816 C44.9910046,33.3622831 44.8693254,32.2045827 45.5083239,31.4154853 Z" id="Rectangle-5-Copy-7" fill="#E53B3B" transform="translate(51.223473, 36.043522) rotate(38.000000) translate(-51.223473, -36.043522) "></path>
                <rect id="Rectangle-5-Copy-5" fill="#7ED321" transform="translate(19.867401, 43.250613) rotate(8.000000) translate(-19.867401, -43.250613) " x="17.3674012" y="33.2506134" width="5" height="20" rx="2.5"></rect>
                <rect id="Rectangle-5-Copy-6" fill="#EB8EA3" transform="translate(89.614084, 42.482708) rotate(-47.000000) translate(-89.614084, -42.482708) " x="87.7401152" y="34.9868335" width="3.7479373" height="14.9917492" rx="1.87396865"></rect>
                <rect id="Rectangle-5-Copy-21" fill="#67B9F5" transform="translate(63.517404, 87.176033) rotate(-51.000000) translate(-63.517404, -87.176033) " x="61.0174036" y="80.1760334" width="5" height="14" rx="2.5"></rect>
                <rect id="Rectangle-5-Copy-19" fill="#F5A623" transform="translate(16.344761, 69.236069) rotate(-51.000000) translate(-16.344761, -69.236069) " x="13.8447606" y="59.2360688" width="5" height="20" rx="2.5"></rect>
                <rect id="Rectangle-5-Copy-17" fill="#F8E71C" transform="translate(22.085460, 19.306306) rotate(-15.000000) translate(-22.085460, -19.306306) " x="19.5854598" y="9.30630588" width="5" height="20" rx="2.5"></rect>
                <path d="M71.8361694,69.5343091 C72.4751679,68.7452117 73.6328683,68.6235325 74.4219657,69.262531 L82.9946892,76.2045856 C83.7837866,76.843584 83.9054658,78.0012845 83.2664673,78.7903819 C82.6274689,79.5794793 81.4697684,79.7011585 80.680671,79.06216 L72.1079476,72.1201055 C71.3188501,71.481107 71.1971709,70.3234065 71.8361694,69.5343091 Z" id="Rectangle-5-Copy-15" fill="#EB8EA3" transform="translate(77.551318, 74.162346) rotate(103.000000) translate(-77.551318, -74.162346) "></path>
                <path d="M32.2055877,79.0183426 C32.8445862,78.2292452 34.0022866,78.107566 34.791384,78.7465644 L43.3641075,85.688619 C44.1532049,86.3276175 44.2748841,87.485318 43.6358857,88.2744154 C42.9968872,89.0635128 41.8391867,89.185192 41.0500893,88.5461935 L32.4773659,81.6041389 C31.6882684,80.9651405 31.5665892,79.80744 32.2055877,79.0183426 Z" id="Rectangle-5-Copy-14" fill="#E53B3B" transform="translate(37.920737, 83.646379) rotate(96.000000) translate(-37.920737, -83.646379) "></path>
                <path d="M64.3802728,51.3268631 C65.0192712,50.5377656 66.1769717,50.4160864 66.9660691,51.0550849 L75.5387926,57.9971395 C76.32789,58.636138 76.4495692,59.7938384 75.8105707,60.5829358 C75.1715722,61.3720332 74.0138718,61.4937124 73.2247744,60.854714 L64.6520509,53.9126594 C63.8629535,53.2736609 63.7412743,52.1159605 64.3802728,51.3268631 Z" id="Rectangle-5-Copy-13" fill="#F5A623" transform="translate(70.095422, 55.954899) rotate(38.000000) translate(-70.095422, -55.954899) "></path>
                <rect id="Rectangle-5-Copy-11" fill="#EB8EA3" transform="translate(6.760179, 53.482708) rotate(-47.000000) translate(-6.760179, -53.482708) " x="4.88621053" y="45.9868335" width="3.7479373" height="14.9917492" rx="1.87396865"></rect>
            </g>
        </g>
    </g>
</svg>