<?xml version="1.0" encoding="iso-8859-1"?>
<!-- Generator: Adobe Illustrator 19.0.0, SVG Export Plug-In . SVG Version: 6.00 Build 0)  -->
<svg version="1.1" id="Capa_1" xmlns="http://www.w3.org/2000/svg" xmlns:xlink="http://www.w3.org/1999/xlink" x="0px" y="0px"
	 viewBox="0 0 512 512" style="enable-background:new 0 0 512 512;" xml:space="preserve">
<path style="fill:#B18E82;" d="M325.012,512H186.986c-18.766,0-35.057-12.931-39.315-31.207l-16.348-70.161
	c-16.16-69.353-6.554-142.215,27.028-205.01l34.939-65.332h125.42l34.939,65.332c33.582,62.795,43.188,135.657,27.028,205.01
	l-16.348,70.161C360.068,499.069,343.778,512,325.012,512z"/>
<path style="fill:#A38277;" d="M186.986,512h138.026c7.357,0,14.329-1.995,20.349-5.512
	c-186.31-64.589-171.454-206.984-135.106-320.615c4.095-12.801,16.04-21.453,29.48-21.453h91.879l-12.904-24.13H193.289
	l-34.939,65.332c-33.582,62.795-43.187,135.657-27.028,205.01l16.348,70.161C151.93,499.069,168.22,512,186.986,512z"/>
<path style="fill:#F8E8B9;" d="M321.705,82.195H190.293c-7.916,0-14.333,6.417-14.333,14.333v29.428
	c0,7.916,6.417,14.333,14.333,14.333h131.412c7.916,0,14.333-6.417,14.333-14.333V96.528
	C336.038,88.612,329.621,82.195,321.705,82.195z"/>
<path style="fill:#F0DBA5;" d="M190.293,82.195c-7.916,0-14.333,6.417-14.333,14.333v29.428c0,7.916,6.417,14.333,14.333,14.333
	h75.861c-23.004-13.264-29.251-39.751-16.198-58.094H190.293z"/>
<path style="fill:#F8E8B9;" d="M287.581,217.018h-63.164c-16.781,0-31.601,10.943-36.54,26.98l-12.373,40.174
	c-8.423,27.348-8.423,56.597,0,83.945l12.373,40.174c4.939,16.038,19.759,26.98,36.54,26.98h63.164
	c16.781,0,31.601-10.943,36.54-26.98l12.373-40.174c8.423-27.348,8.423-56.597,0-83.945l-12.373-40.174
	C319.182,227.96,304.362,217.018,287.581,217.018z"/>
<path style="fill:#F0DBA5;" d="M187.877,408.291c4.939,16.038,19.759,26.98,36.54,26.98h6.937
	c-51.931-59.949-50-136.964-32.766-208.175c-4.89,4.483-8.661,10.243-10.712,16.901l-12.373,40.174
	c-8.423,27.348-8.423,56.597,0,83.945L187.877,408.291z"/>
<path style="fill:#9D7D75;" d="M265.978,365.96l-55.142-20.07c-5.696-2.073-8.633-8.372-6.56-14.068l27.675-76.038
	c2.073-5.696,8.372-8.633,14.068-6.56l55.142,20.07c5.696,2.073,8.633,8.372,6.56,14.068L280.046,359.4
	C277.973,365.096,271.674,368.033,265.978,365.96z"/>
<g>
	
		<rect x="215.687" y="300.083" transform="matrix(-0.9397 -0.342 0.342 -0.9397 391.3738 684.1707)" style="fill:#8A6C68;" width="80.63" height="15"/>
	
		<rect x="248.495" y="256.164" transform="matrix(-0.9397 -0.342 0.342 -0.9397 391.3546 684.2001)" style="fill:#8A6C68;" width="15" height="102.87"/>
</g>
<path style="fill:#414C59;" d="M282.909,403.901h-53.82c-4.143,0-7.5-3.358-7.5-7.5s3.357-7.5,7.5-7.5h53.82
	c4.143,0,7.5,3.358,7.5,7.5C290.409,400.544,287.052,403.901,282.909,403.901z"/>
<path style="fill:#9D7D75;" d="M145.733,472.477l1.938,8.316C151.93,499.069,168.22,512,186.986,512h138.026
	c18.766,0,35.056-12.931,39.315-31.207l1.938-8.316H145.733z"/>
<path style="fill:#8A6C68;" d="M186.986,512h138.026c7.357,0,14.329-1.995,20.349-5.513c-27.988-9.703-51.445-21.157-70.963-34.011
	H145.733l1.938,8.316C151.93,499.069,168.22,512,186.986,512z"/>
<rect x="223.649" y="51.765" style="fill:#B18E82;" width="64.7" height="30.43"/>
<path style="fill:#9D7D75;" d="M297.74,51.765h-83.482c-7.18,0-13-5.82-13-13v-3.968c0-8.241,2.7-16.255,7.687-22.816l0,0
	C214.683,4.433,223.621,0,233.103,0h45.793c9.482,0,18.419,4.433,24.157,11.981l0,0c4.987,6.561,7.687,14.575,7.687,22.816v3.968
	C310.74,45.945,304.92,51.765,297.74,51.765z"/>
<path style="fill:#8A6C68;" d="M246.517,0h-13.415c-9.482,0-18.419,4.433-24.157,11.981c-4.987,6.561-7.687,14.575-7.687,22.816
	v3.968c0,7.18,5.82,13,13,13h50.57C240.505,39.586,236.807,12.713,246.517,0z"/>
<g>
</g>
<g>
</g>
<g>
</g>
<g>
</g>
<g>
</g>
<g>
</g>
<g>
</g>
<g>
</g>
<g>
</g>
<g>
</g>
<g>
</g>
<g>
</g>
<g>
</g>
<g>
</g>
<g>
</g>
</svg>
